<?xml version="1.0" encoding="UTF-8" ?>
<!DOCTYPE svg PUBLIC "-//W3C//DTD SVG 1.1//EN" "http://www.w3.org/Graphics/SVG/1.1/DTD/svg11.dtd">
<svg width="708pt" height="239pt" viewBox="0 0 708 239" version="1.1" xmlns="http://www.w3.org/2000/svg">
<g id="#eb8694ff">
<path fill="#eb8694" opacity="1.00" d=" M 0.80 0.00 L 26.78 0.00 C 27.29 55.99 26.86 112.00 27.00 168.00 C 18.23 167.98 9.47 168.01 0.71 167.98 C 0.74 111.99 0.56 55.99 0.80 0.00 Z" />
<path fill="#eb8694" opacity="1.00" d=" M 46.65 0.00 L 79.14 0.00 C 88.45 32.38 95.97 65.33 106.07 97.46 C 107.20 65.01 105.96 32.48 106.67 0.00 L 129.73 0.00 C 130.28 55.98 129.81 111.99 129.97 167.99 C 120.96 168.00 111.95 168.00 102.94 167.98 C 93.33 132.94 83.97 97.83 74.44 62.76 C 73.39 58.48 72.38 54.14 70.36 50.20 C 69.49 89.43 70.24 128.73 69.99 167.99 C 62.12 167.99 54.24 168.01 46.37 167.97 C 46.53 111.98 45.99 55.98 46.65 0.00 Z" />
<path fill="#eb8694" opacity="1.00" d=" M 141.86 0.00 L 167.78 0.00 C 175.40 44.74 180.63 89.96 188.28 134.70 C 196.03 89.97 201.35 44.80 208.73 0.00 L 232.32 0.00 C 224.42 56.08 215.11 111.98 206.78 168.00 C 193.63 167.99 180.48 167.99 167.33 168.00 C 159.27 111.94 149.84 56.07 141.86 0.00 Z" />
<path fill="#eb8694" opacity="1.00" d=" M 283.10 0.00 L 363.85 0.00 C 364.65 7.99 364.10 16.04 364.25 24.05 C 355.17 24.43 346.09 24.11 337.02 24.23 C 336.92 72.13 337.05 120.04 336.95 167.94 C 328.17 168.04 319.39 167.97 310.61 167.99 C 310.36 120.03 310.90 72.06 310.35 24.11 C 301.24 24.29 292.12 24.36 283.01 24.06 C 283.02 16.04 282.93 8.02 283.10 0.00 Z" />
<path fill="#eb8694" opacity="1.00" d=" M 386.64 0.00 L 424.48 0.00 C 427.10 10.52 428.04 21.36 430.01 32.01 C 437.21 77.34 444.64 122.62 451.66 167.98 C 442.84 168.00 434.02 167.99 425.21 168.00 C 423.81 157.85 422.15 147.74 420.79 137.58 C 409.94 137.71 399.09 137.55 388.24 137.72 C 386.83 147.82 385.23 157.89 383.82 168.00 C 375.83 167.97 367.83 168.02 359.83 167.96 C 368.52 111.94 377.55 55.96 386.64 0.00 M 403.40 35.07 C 399.57 61.67 395.32 88.23 391.53 114.85 C 400.08 114.89 408.63 115.50 417.18 115.08 C 413.23 87.49 409.45 59.84 404.65 32.39 C 404.15 33.24 403.73 34.14 403.40 35.07 Z" />
<path fill="#eb8694" opacity="1.00" d=" M 463.43 0.00 L 499.55 0.00 C 506.91 38.73 511.64 78.00 519.42 116.63 C 526.14 77.90 531.35 38.86 537.39 0.00 L 573.79 0.00 C 574.23 55.99 573.86 111.99 573.97 167.99 C 565.65 168.00 557.32 167.99 549.00 167.99 C 548.78 129.74 549.43 91.46 548.68 53.23 C 541.77 91.28 536.98 129.79 530.78 168.00 C 522.51 167.99 514.25 168.00 505.99 167.99 C 500.65 135.66 495.24 103.34 489.98 71.00 C 489.10 66.32 488.89 61.42 486.75 57.07 C 485.64 93.99 486.55 131.02 486.26 167.98 C 478.55 168.00 470.85 167.99 463.14 167.99 C 463.47 111.99 462.89 55.99 463.43 0.00 Z" />
<path fill="#eb8694" opacity="1.00" d=" M 244.81 0.36 C 253.53 0.44 262.26 0.32 270.99 0.33 C 271.01 56.22 270.99 112.11 271.00 168.00 C 262.24 167.98 253.48 168.00 244.72 167.98 C 244.72 112.11 244.56 56.23 244.81 0.36 Z" />
<path fill="#eb8694" opacity="1.00" d=" M 593.58 1.81 C 593.30 -0.47 596.66 0.66 598.01 0.30 C 620.39 0.44 642.78 0.36 665.17 0.34 C 665.23 8.28 665.29 16.22 665.18 24.15 C 650.12 24.29 635.06 24.32 620.01 24.14 C 619.91 39.79 620.06 55.43 619.93 71.07 C 631.93 70.97 643.93 70.97 655.93 71.07 C 656.03 79.03 655.97 86.99 655.96 94.95 C 643.99 95.05 632.01 94.94 620.04 95.04 C 619.94 111.36 619.93 127.68 619.99 144.00 C 635.05 144.01 650.12 143.98 665.18 144.01 C 665.26 152.00 665.27 159.99 665.18 167.98 C 641.33 167.99 617.48 168.02 593.63 167.96 C 593.52 112.58 593.64 57.19 593.58 1.81 Z" />
<path fill="#eb8694" opacity="1.00" d=" M 681.65 0.37 C 690.43 0.27 699.22 0.52 708.00 0.23 L 708.00 71.27 C 706.73 91.11 705.27 110.98 704.89 130.87 C 698.33 131.02 691.76 130.99 685.20 130.93 C 681.40 87.51 681.27 43.93 681.65 0.37 Z" />
<path fill="#eb8694" opacity="1.00" d=" M 682.15 142.79 C 690.53 142.69 698.92 142.72 707.30 142.73 C 707.37 151.15 707.43 159.57 707.36 167.99 C 698.91 168.00 690.47 167.99 682.03 167.99 C 682.07 159.59 681.88 151.18 682.15 142.79 Z" />
<path fill="#eb8694" opacity="1.00" d=" M 625.03 187.56 C 633.99 186.45 643.06 187.10 652.07 187.04 C 655.00 186.55 655.50 189.80 655.38 191.98 C 655.36 206.34 655.44 220.69 655.29 235.04 C 655.77 238.53 651.37 238.43 649.01 238.35 C 641.17 237.81 633.16 239.21 625.44 237.58 C 624.42 221.02 625.29 204.22 625.03 187.56 M 627.86 193.33 C 627.59 205.77 627.60 218.22 627.86 230.66 C 635.97 231.58 644.16 230.86 652.31 230.81 C 652.30 218.35 653.07 205.63 651.94 193.33 C 643.98 192.27 635.83 192.42 627.86 193.33 Z" />
<path fill="#eb8694" opacity="1.00" d=" M 190.94 207.98 C 191.30 201.95 198.91 199.42 203.65 202.28 C 207.91 204.29 207.62 209.76 207.75 213.74 C 205.97 213.77 204.20 213.77 202.42 213.76 C 202.34 211.86 202.27 209.95 202.21 208.05 C 201.77 207.54 200.87 206.51 200.43 205.99 C 199.02 206.52 196.84 206.51 196.54 208.38 C 196.04 216.27 196.40 224.19 196.44 232.09 C 202.20 235.73 202.78 228.45 202.50 224.37 C 204.26 224.32 206.02 224.29 207.78 224.27 C 207.73 228.64 208.22 234.28 204.05 237.04 C 199.55 239.76 191.74 237.97 191.01 232.04 C 190.56 224.04 190.66 215.98 190.94 207.98 Z" />
<path fill="#eb8694" opacity="1.00" d=" M 234.35 201.52 C 239.10 199.94 245.28 202.68 245.74 208.07 C 246.15 215.93 246.21 223.90 245.72 231.76 C 244.51 239.76 231.42 240.75 229.28 232.90 C 228.34 225.31 228.78 217.61 228.78 209.98 C 228.55 206.33 230.88 202.70 234.35 201.52 M 234.40 208.26 C 233.97 216.38 234.40 224.53 234.44 232.66 C 236.32 232.68 238.97 234.14 240.01 231.83 C 240.94 223.79 240.13 215.65 240.38 207.57 C 238.68 206.41 234.98 205.47 234.40 208.26 Z" />
<path fill="#eb8694" opacity="1.00" d=" M 305.25 203.22 C 311.66 198.33 321.61 202.67 320.26 211.30 C 318.67 211.29 317.09 211.27 315.50 211.24 C 315.58 207.19 311.76 204.73 308.69 207.85 C 308.32 214.35 314.52 217.54 317.84 222.15 C 320.85 225.82 320.91 231.46 318.43 235.41 C 315.92 238.66 311.01 238.75 307.45 237.42 C 303.62 235.58 303.27 230.88 303.11 227.16 C 304.88 227.08 306.65 227.02 308.43 226.98 C 307.83 230.55 310.53 235.56 314.19 231.86 C 315.96 225.84 309.98 222.26 306.62 218.40 C 302.60 214.38 302.89 208.02 305.25 203.22 Z" />
<path fill="#eb8694" opacity="1.00" d=" M 403.02 201.54 C 408.23 201.53 413.44 201.43 418.65 201.48 C 418.67 203.17 418.69 204.87 418.68 206.57 C 415.46 206.73 412.23 206.74 409.00 206.76 C 409.00 210.17 409.00 213.58 409.00 216.99 C 411.65 217.00 414.29 217.01 416.95 217.05 C 416.94 218.67 416.92 220.30 416.90 221.93 C 414.27 221.98 411.63 222.00 409.00 222.02 C 409.00 225.63 408.98 229.24 409.06 232.86 C 412.27 232.96 415.48 232.91 418.70 232.96 C 418.73 234.57 418.76 236.18 418.77 237.79 C 413.55 238.11 408.32 238.04 403.10 237.90 C 402.89 225.78 403.03 213.66 403.02 201.54 Z" />
<path fill="#eb8694" opacity="1.00" d=" M 426.29 201.48 C 428.07 201.49 429.86 201.51 431.66 201.56 C 432.26 211.99 431.54 222.44 432.01 232.87 C 435.03 232.99 438.05 232.96 441.08 232.92 C 441.09 234.60 441.09 236.28 441.08 237.97 C 436.08 238.00 431.08 238.03 426.08 237.94 C 426.12 225.79 425.77 213.62 426.29 201.48 Z" />
<path fill="#eb8694" opacity="1.00" d=" M 461.97 208.00 C 462.45 200.88 472.81 198.83 476.85 204.12 C 478.80 206.93 478.70 210.49 478.76 213.76 C 476.94 213.78 475.13 213.76 473.32 213.73 C 473.18 211.48 473.04 209.22 472.85 206.97 C 471.34 206.70 469.83 206.46 468.32 206.24 C 466.16 214.50 467.64 223.24 467.38 231.70 C 468.30 232.31 469.22 232.93 470.15 233.55 C 474.66 232.06 474.59 224.07 470.78 221.80 C 470.80 220.42 470.83 219.05 470.87 217.67 C 473.47 217.69 476.08 217.72 478.68 217.83 C 478.62 222.88 479.43 228.11 478.07 233.03 C 476.03 240.38 462.96 239.90 462.08 232.02 C 461.31 224.06 461.69 215.98 461.97 208.00 Z" />
<path fill="#eb8694" opacity="1.00" d=" M 487.15 201.55 C 492.30 201.51 497.46 201.46 502.61 201.42 C 502.63 203.15 502.63 204.88 502.61 206.62 C 499.41 206.76 496.21 206.70 493.01 206.66 C 492.99 210.10 493.00 213.55 493.01 216.99 C 495.57 217.01 498.12 217.03 500.68 217.05 C 500.69 218.66 500.69 220.27 500.69 221.89 C 498.09 221.98 495.49 222.02 492.90 222.09 C 492.97 225.65 492.98 229.21 493.14 232.77 C 496.32 232.99 499.51 233.02 502.71 233.09 C 502.70 234.67 502.70 236.24 502.69 237.82 C 497.48 238.08 492.27 238.03 487.06 237.92 C 487.02 225.80 486.84 213.67 487.15 201.55 Z" />
<path fill="#eb8694" opacity="1.00" d=" M 582.36 214.77 C 579.88 209.49 582.34 201.34 589.00 201.17 C 594.85 200.20 598.76 205.90 598.25 211.25 C 596.63 211.27 595.01 211.29 593.40 211.30 C 593.63 208.02 590.28 204.36 587.52 207.43 C 584.82 216.75 599.21 219.70 598.08 229.00 C 598.82 234.19 594.35 239.27 588.95 238.06 C 583.02 238.71 580.60 231.77 581.22 226.95 C 582.94 227.03 584.66 227.13 586.40 227.25 C 587.12 229.19 586.07 233.10 589.06 233.04 C 592.45 233.92 593.19 229.42 592.06 227.12 C 589.86 222.27 584.48 219.70 582.36 214.77 Z" />
<path fill="#eb8694" opacity="1.00" d=" M 65.01 201.53 C 66.96 201.56 68.92 201.61 70.87 201.67 C 71.06 213.73 71.08 225.81 70.86 237.87 C 68.91 237.94 66.95 237.99 65.00 238.04 C 65.00 225.87 64.99 213.70 65.01 201.53 Z" />
<path fill="#eb8694" opacity="1.00" d=" M 79.03 201.55 C 81.38 201.49 83.73 201.51 86.07 201.57 C 88.18 207.87 89.15 214.54 91.89 220.62 C 92.45 214.31 91.90 207.97 92.16 201.65 C 93.77 201.57 95.37 201.50 96.98 201.45 C 97.02 213.63 96.99 225.82 96.98 238.01 C 95.14 237.99 93.29 237.98 91.44 237.95 C 88.46 231.48 89.43 222.35 84.18 217.54 C 83.73 224.31 84.56 231.09 83.92 237.85 C 82.29 237.94 80.66 238.00 79.03 238.06 C 78.98 225.89 78.98 213.72 79.03 201.55 Z" />
<path fill="#eb8694" opacity="1.00" d=" M 104.82 201.51 C 106.65 201.51 108.49 201.52 110.33 201.56 C 111.79 210.56 112.67 219.66 114.57 228.57 C 117.21 219.84 117.31 210.59 119.33 201.71 C 120.94 201.64 122.55 201.59 124.15 201.56 C 122.65 213.75 120.53 225.86 118.65 238.00 C 115.88 237.99 113.12 237.97 110.36 237.89 C 108.28 225.80 106.30 213.68 104.82 201.51 Z" />
<path fill="#eb8694" opacity="1.00" d=" M 131.02 201.61 C 133.00 201.59 134.98 201.58 136.97 201.59 C 136.95 213.73 137.17 225.88 136.84 238.02 C 134.92 237.99 133.00 237.96 131.08 237.91 C 130.92 225.81 131.02 213.71 131.02 201.61 Z" />
<path fill="#eb8694" opacity="1.00" d=" M 143.45 206.42 C 143.47 204.79 143.52 203.17 143.61 201.55 C 149.41 201.53 155.20 201.41 160.99 201.53 C 160.99 203.25 160.99 204.97 160.99 206.70 C 159.04 206.71 157.08 206.74 155.13 206.80 C 154.78 217.20 155.15 227.61 154.96 238.01 C 153.13 237.99 151.31 237.97 149.49 237.95 C 149.30 227.57 149.49 217.19 149.39 206.81 C 147.41 206.67 145.43 206.55 143.45 206.42 Z" />
<path fill="#eb8694" opacity="1.00" d=" M 169.23 201.55 C 172.04 201.50 174.86 201.52 177.67 201.64 C 179.83 213.72 181.80 225.85 183.45 238.02 C 181.64 237.99 179.83 237.97 178.02 237.92 C 177.60 235.73 177.16 233.54 176.75 231.35 C 171.65 230.09 167.93 232.47 168.77 238.01 C 167.09 237.99 165.40 237.97 163.72 237.95 C 165.32 225.78 167.82 213.74 169.23 201.55 M 170.30 226.64 C 172.35 226.65 174.40 226.63 176.46 226.56 C 175.33 221.21 174.98 215.74 174.02 210.37 C 170.46 214.87 171.52 221.27 170.30 226.64 Z" />
<path fill="#eb8694" opacity="1.00" d=" M 215.04 201.62 C 216.97 201.59 218.90 201.59 220.83 201.63 C 221.08 213.75 221.10 225.87 220.81 237.98 C 218.89 237.98 216.97 237.98 215.05 237.96 C 214.96 225.85 214.97 213.74 215.04 201.62 Z" />
<path fill="#eb8694" opacity="1.00" d=" M 254.11 201.66 C 256.41 201.55 258.72 201.49 261.03 201.46 C 263.25 207.75 264.09 214.47 266.74 220.61 C 267.30 214.27 266.76 207.90 267.14 201.55 C 268.78 201.53 270.41 201.53 272.05 201.54 C 272.24 213.68 272.11 225.82 272.17 237.97 C 270.24 237.97 268.31 237.97 266.38 237.97 C 263.69 230.56 263.34 222.17 259.30 215.36 C 258.67 222.88 259.22 230.44 258.93 237.97 C 257.32 237.94 255.72 237.89 254.12 237.83 C 253.95 225.77 253.97 213.71 254.11 201.66 Z" />
<path fill="#eb8694" opacity="1.00" d=" M 280.12 201.62 C 285.23 201.49 290.34 201.47 295.45 201.50 C 295.57 203.18 295.65 204.87 295.66 206.56 C 292.37 206.74 289.08 206.73 285.79 206.75 C 285.84 210.12 285.85 213.48 285.89 216.85 C 288.46 216.96 291.04 217.02 293.62 217.07 C 293.60 218.69 293.58 220.30 293.57 221.92 C 290.97 221.99 288.37 222.07 285.77 222.18 C 285.82 225.72 285.84 229.27 286.03 232.81 C 289.23 232.97 292.43 232.95 295.63 232.94 C 295.66 234.61 295.69 236.28 295.70 237.96 C 290.51 238.01 285.32 238.07 280.13 237.87 C 279.90 225.79 279.96 213.70 280.12 201.62 Z" />
<path fill="#eb8694" opacity="1.00" d=" M 340.16 201.52 C 341.97 201.66 344.01 201.08 345.67 202.02 C 346.09 213.93 345.88 225.89 345.73 237.82 C 343.88 237.92 342.04 237.96 340.19 237.96 C 339.89 225.81 339.99 213.66 340.16 201.52 Z" />
<path fill="#eb8694" opacity="1.00" d=" M 354.16 201.65 C 356.46 201.56 358.75 201.50 361.05 201.45 C 363.27 207.74 364.15 214.46 366.72 220.61 C 367.30 214.28 366.81 207.91 367.08 201.56 C 368.77 201.55 370.46 201.56 372.15 201.60 C 372.06 213.68 372.38 225.76 372.03 237.84 C 370.15 237.89 368.27 237.92 366.39 237.93 C 364.41 230.75 362.63 223.52 360.40 216.42 C 357.20 222.76 359.82 230.95 359.05 238.01 C 357.39 237.99 355.72 237.96 354.07 237.92 C 354.01 225.83 353.88 213.74 354.16 201.65 Z" />
<path fill="#eb8694" opacity="1.00" d=" M 384.45 206.94 C 380.23 207.60 377.20 206.00 378.52 201.49 C 384.32 201.53 390.11 201.53 395.91 201.55 C 395.96 203.15 396.01 204.75 396.07 206.35 C 394.10 206.54 392.12 206.72 390.16 206.91 C 389.76 217.25 390.11 227.59 389.94 237.94 C 388.18 237.98 386.42 238.00 384.67 238.02 C 384.19 227.67 384.55 217.30 384.45 206.94 Z" />
<path fill="#eb8694" opacity="1.00" d=" M 448.17 201.51 C 449.99 201.65 451.95 201.27 453.67 202.05 C 454.06 214.01 453.85 226.00 453.77 237.97 C 451.90 237.95 450.05 237.91 448.20 237.83 C 447.83 225.73 447.97 213.61 448.17 201.51 Z" />
<path fill="#eb8694" opacity="1.00" d=" M 510.13 201.68 C 512.42 201.56 514.72 201.51 517.02 201.49 C 519.29 207.75 520.08 214.48 522.74 220.61 C 523.29 214.27 522.79 207.90 523.10 201.55 C 524.74 201.54 526.40 201.54 528.06 201.56 C 528.19 213.70 528.14 225.83 528.15 237.96 C 526.23 237.97 524.32 237.97 522.41 237.96 C 519.68 230.57 519.34 222.17 515.31 215.36 C 514.67 222.88 515.21 230.43 514.94 237.97 C 513.32 237.92 511.71 237.86 510.11 237.79 C 509.98 225.75 509.94 213.71 510.13 201.68 Z" />
<path fill="#eb8694" opacity="1.00" d=" M 534.66 201.53 C 540.44 201.55 546.22 201.51 552.01 201.45 C 552.00 203.17 552.00 204.91 551.99 206.64 C 550.03 206.71 548.08 206.80 546.14 206.91 C 545.76 217.24 546.16 227.59 545.91 237.94 C 544.07 237.95 542.25 237.96 540.43 237.95 C 540.54 227.61 540.53 217.28 540.43 206.95 C 538.44 206.76 536.46 206.55 534.49 206.30 C 534.53 204.71 534.59 203.12 534.66 201.53 Z" />
<path fill="#eb8694" opacity="1.00" d=" M 559.07 201.61 C 564.31 201.48 569.56 201.45 574.80 201.59 C 574.75 203.27 574.70 204.95 574.61 206.63 C 571.38 206.71 568.14 206.70 564.91 206.75 C 564.97 210.13 564.98 213.51 565.07 216.90 C 567.63 216.98 570.18 217.03 572.75 217.11 C 572.77 218.69 572.78 220.27 572.78 221.86 C 570.16 221.98 567.54 222.03 564.93 222.11 C 565.07 225.61 564.63 229.17 565.40 232.61 C 568.45 233.18 571.58 233.00 574.67 233.06 C 574.69 234.65 574.71 236.25 574.71 237.84 C 569.50 238.08 564.28 238.04 559.08 237.89 C 558.94 225.80 558.96 213.70 559.07 201.61 Z" />
<path fill="#eb8694" opacity="1.00" d=" M 633.32 205.14 C 635.82 205.08 638.06 206.06 640.06 207.51 C 642.72 205.07 647.43 204.03 649.21 208.06 C 650.71 213.56 644.77 217.31 640.72 219.74 C 634.89 218.73 627.00 210.52 633.32 205.14 Z" />
</g>
</svg>
